<mxfile host="Electron" modified="2024-02-04T11:21:31.115Z" agent="Mozilla/5.0 (Windows NT 10.0; Win64; x64) AppleWebKit/537.36 (KHTML, like Gecko) draw.io/23.0.2 Chrome/120.0.6099.109 Electron/28.1.0 Safari/537.36" etag="NxWIqb6JvmCmQDYkU8Po" version="23.0.2" type="device">
  <diagram name="Page-1" id="AP0AheNI9Aq62g53hrNR">
    <mxGraphModel dx="794" dy="511" grid="1" gridSize="10" guides="1" tooltips="1" connect="1" arrows="1" fold="1" page="1" pageScale="1" pageWidth="827" pageHeight="1169" math="0" shadow="0">
      <root>
        <mxCell id="0" />
        <mxCell id="1" parent="0" />
        <UserObject label="Researchers" type="externalEntity" source="" flow="" placeholders="1" id="oDHuUjMVB9zOK3hgbLc3-1">
          <mxCell style="shape=rectangle;whiteSpace=wrap;html=1;fillColor=#ffffff;strokeColor=#000000;align=center;verticalAlign=middle;fontColor=#232F3E;" vertex="1" parent="1">
            <mxGeometry y="130" width="95" height="35" as="geometry" />
          </mxCell>
        </UserObject>
        <UserObject label="Electronic Support System" type="process" source="1" flow="Data Sets" placeholders="1" id="oDHuUjMVB9zOK3hgbLc3-2">
          <mxCell style="shape=ellipse;perimeter=ellipsePerimeter;whiteSpace=wrap;html=1;fillColor=#ffffff;strokeColor=#000000;align=center;verticalAlign=middle;fontColor=#232F3E;" vertex="1" parent="1">
            <mxGeometry x="205" width="165" height="35" as="geometry" />
          </mxCell>
        </UserObject>
        <UserObject label="Data Sets Repository" type="dataStore" source="2" flow="Data Sets" placeholders="1" id="oDHuUjMVB9zOK3hgbLc3-3">
          <mxCell style="html=1;dashed=0;whiteSpace=wrap;shape=partialRectangle;right=0;left=0;" vertex="1" parent="1">
            <mxGeometry x="500" width="145" height="35" as="geometry" />
          </mxCell>
        </UserObject>
        <UserObject label="Post-Experiment Write-Ups" type="process" source="1" flow="Write-Ups" placeholders="1" id="oDHuUjMVB9zOK3hgbLc3-4">
          <mxCell style="shape=ellipse;perimeter=ellipsePerimeter;whiteSpace=wrap;html=1;fillColor=#ffffff;strokeColor=#000000;align=center;verticalAlign=middle;fontColor=#232F3E;" vertex="1" parent="1">
            <mxGeometry x="200" y="65" width="175" height="35" as="geometry" />
          </mxCell>
        </UserObject>
        <UserObject label="Shared Write-Ups Repository" type="dataStore" source="4" flow="Write-Ups" placeholders="1" id="oDHuUjMVB9zOK3hgbLc3-5">
          <mxCell style="html=1;dashed=0;whiteSpace=wrap;shape=partialRectangle;right=0;left=0;" vertex="1" parent="1">
            <mxGeometry x="480" y="65" width="185" height="35" as="geometry" />
          </mxCell>
        </UserObject>
        <UserObject label="Data Collection" type="process" source="1" flow="Collected Data" placeholders="1" id="oDHuUjMVB9zOK3hgbLc3-6">
          <mxCell style="shape=ellipse;perimeter=ellipsePerimeter;whiteSpace=wrap;html=1;fillColor=#ffffff;strokeColor=#000000;align=center;verticalAlign=middle;fontColor=#232F3E;" vertex="1" parent="1">
            <mxGeometry x="235" y="130" width="105" height="35" as="geometry" />
          </mxCell>
        </UserObject>
        <UserObject label="Library of Data" type="dataStore" source="6" flow="Collected Data" placeholders="1" id="oDHuUjMVB9zOK3hgbLc3-7">
          <mxCell style="html=1;dashed=0;whiteSpace=wrap;shape=partialRectangle;right=0;left=0;" vertex="1" parent="1">
            <mxGeometry x="520" y="130" width="105" height="35" as="geometry" />
          </mxCell>
        </UserObject>
        <UserObject label="Log Book Management" type="process" source="1" flow="Experimental Data" placeholders="1" id="oDHuUjMVB9zOK3hgbLc3-8">
          <mxCell style="shape=ellipse;perimeter=ellipsePerimeter;whiteSpace=wrap;html=1;fillColor=#ffffff;strokeColor=#000000;align=center;verticalAlign=middle;fontColor=#232F3E;" vertex="1" parent="1">
            <mxGeometry x="210" y="195" width="155" height="35" as="geometry" />
          </mxCell>
        </UserObject>
        <UserObject label="Good/Bad Data Records" type="dataStore" source="8" flow="Experimental Data" placeholders="1" id="oDHuUjMVB9zOK3hgbLc3-9">
          <mxCell style="html=1;dashed=0;whiteSpace=wrap;shape=partialRectangle;right=0;left=0;" vertex="1" parent="1">
            <mxGeometry x="495" y="195" width="155" height="35" as="geometry" />
          </mxCell>
        </UserObject>
        <UserObject label="Standard Metadata Provision" type="process" source="1" flow="Standard Metadata" placeholders="1" id="oDHuUjMVB9zOK3hgbLc3-10">
          <mxCell style="shape=ellipse;perimeter=ellipsePerimeter;whiteSpace=wrap;html=1;fillColor=#ffffff;strokeColor=#000000;align=center;verticalAlign=middle;fontColor=#232F3E;" vertex="1" parent="1">
            <mxGeometry x="195" y="260" width="185" height="35" as="geometry" />
          </mxCell>
        </UserObject>
        <UserObject label="Metadata Repository" type="dataStore" source="10" flow="Standard Metadata" placeholders="1" id="oDHuUjMVB9zOK3hgbLc3-11">
          <mxCell style="html=1;dashed=0;whiteSpace=wrap;shape=partialRectangle;right=0;left=0;" vertex="1" parent="1">
            <mxGeometry x="505" y="260" width="135" height="35" as="geometry" />
          </mxCell>
        </UserObject>
        <mxCell id="oDHuUjMVB9zOK3hgbLc3-12" value="Data Sets" style="endArrow=blockThin;endFill=1;fontSize=11;orthogonal=1;noEdgeStyle=1;" edge="1" parent="1" source="oDHuUjMVB9zOK3hgbLc3-1" target="oDHuUjMVB9zOK3hgbLc3-2">
          <mxGeometry relative="1" as="geometry">
            <Array as="points">
              <mxPoint x="107" y="133.5" />
              <mxPoint x="183" y="17.5" />
            </Array>
          </mxGeometry>
        </mxCell>
        <mxCell id="oDHuUjMVB9zOK3hgbLc3-13" value="Data Sets" style="endArrow=blockThin;endFill=1;fontSize=11;orthogonal=1;noEdgeStyle=1;" edge="1" parent="1" source="oDHuUjMVB9zOK3hgbLc3-2" target="oDHuUjMVB9zOK3hgbLc3-3">
          <mxGeometry relative="1" as="geometry">
            <Array as="points">
              <mxPoint x="392" y="17.5" />
              <mxPoint x="468" y="17.5" />
            </Array>
          </mxGeometry>
        </mxCell>
        <mxCell id="oDHuUjMVB9zOK3hgbLc3-14" value="Write-Ups" style="endArrow=blockThin;endFill=1;fontSize=11;orthogonal=1;noEdgeStyle=1;" edge="1" parent="1" source="oDHuUjMVB9zOK3hgbLc3-1" target="oDHuUjMVB9zOK3hgbLc3-4">
          <mxGeometry relative="1" as="geometry">
            <Array as="points">
              <mxPoint x="109" y="140.5" />
              <mxPoint x="183" y="82.5" />
            </Array>
          </mxGeometry>
        </mxCell>
        <mxCell id="oDHuUjMVB9zOK3hgbLc3-15" value="Write-Ups" style="endArrow=blockThin;endFill=1;fontSize=11;orthogonal=1;noEdgeStyle=1;" edge="1" parent="1" source="oDHuUjMVB9zOK3hgbLc3-4" target="oDHuUjMVB9zOK3hgbLc3-5">
          <mxGeometry relative="1" as="geometry">
            <Array as="points">
              <mxPoint x="392" y="82.5" />
              <mxPoint x="468" y="82.5" />
            </Array>
          </mxGeometry>
        </mxCell>
        <mxCell id="oDHuUjMVB9zOK3hgbLc3-16" value="Collected Data" style="endArrow=blockThin;endFill=1;fontSize=11;orthogonal=1;noEdgeStyle=1;" edge="1" parent="1" source="oDHuUjMVB9zOK3hgbLc3-1" target="oDHuUjMVB9zOK3hgbLc3-6">
          <mxGeometry relative="1" as="geometry">
            <Array as="points">
              <mxPoint x="111" y="147.5" />
              <mxPoint x="183" y="147.5" />
            </Array>
          </mxGeometry>
        </mxCell>
        <mxCell id="oDHuUjMVB9zOK3hgbLc3-17" value="Collected Data" style="endArrow=blockThin;endFill=1;fontSize=11;orthogonal=1;noEdgeStyle=1;" edge="1" parent="1" source="oDHuUjMVB9zOK3hgbLc3-6" target="oDHuUjMVB9zOK3hgbLc3-7">
          <mxGeometry relative="1" as="geometry">
            <Array as="points">
              <mxPoint x="392" y="147.5" />
              <mxPoint x="468" y="147.5" />
            </Array>
          </mxGeometry>
        </mxCell>
        <mxCell id="oDHuUjMVB9zOK3hgbLc3-18" value="Experimental Data" style="endArrow=blockThin;endFill=1;fontSize=11;orthogonal=1;noEdgeStyle=1;" edge="1" parent="1" source="oDHuUjMVB9zOK3hgbLc3-1" target="oDHuUjMVB9zOK3hgbLc3-8">
          <mxGeometry relative="1" as="geometry">
            <Array as="points">
              <mxPoint x="109" y="154.5" />
              <mxPoint x="183" y="212.5" />
            </Array>
          </mxGeometry>
        </mxCell>
        <mxCell id="oDHuUjMVB9zOK3hgbLc3-19" value="Experimental Data" style="endArrow=blockThin;endFill=1;fontSize=11;orthogonal=1;noEdgeStyle=1;" edge="1" parent="1" source="oDHuUjMVB9zOK3hgbLc3-8" target="oDHuUjMVB9zOK3hgbLc3-9">
          <mxGeometry relative="1" as="geometry">
            <Array as="points">
              <mxPoint x="392" y="212.5" />
              <mxPoint x="468" y="212.5" />
            </Array>
          </mxGeometry>
        </mxCell>
        <mxCell id="oDHuUjMVB9zOK3hgbLc3-20" value="Standard Metadata" style="endArrow=blockThin;endFill=1;fontSize=11;orthogonal=1;noEdgeStyle=1;" edge="1" parent="1" source="oDHuUjMVB9zOK3hgbLc3-1" target="oDHuUjMVB9zOK3hgbLc3-10">
          <mxGeometry relative="1" as="geometry">
            <Array as="points">
              <mxPoint x="107" y="161.5" />
              <mxPoint x="183" y="277.5" />
            </Array>
          </mxGeometry>
        </mxCell>
        <mxCell id="oDHuUjMVB9zOK3hgbLc3-21" value="Standard Metadata" style="endArrow=blockThin;endFill=1;fontSize=11;orthogonal=1;noEdgeStyle=1;" edge="1" parent="1" source="oDHuUjMVB9zOK3hgbLc3-10" target="oDHuUjMVB9zOK3hgbLc3-11">
          <mxGeometry relative="1" as="geometry">
            <Array as="points">
              <mxPoint x="392" y="277.5" />
              <mxPoint x="468" y="277.5" />
            </Array>
          </mxGeometry>
        </mxCell>
      </root>
    </mxGraphModel>
  </diagram>
</mxfile>
